Coordinates
version=1
nRows=18
nColumns=63
inDegrees=yes

Units are S.I. units (second, meters, Newtons, ...)
If the header above contains a line with 'inDegrees', this indicates whether rotational values are in degrees (yes) or radians (no).

endheader
time	pelvis_tilt	pelvis_list	pelvis_rotation	pelvis_tx	pelvis_ty	pelvis_tz	hip_flexion_r	hip_adduction_r	hip_rotation_r	knee_angle_r	knee_angle_r_beta	ankle_angle_r	subtalar_angle_r	mtp_angle_r	hip_flexion_l	hip_adduction_l	hip_rotation_l	knee_angle_l	knee_angle_l_beta	ankle_angle_l	subtalar_angle_l	mtp_angle_l	L5_S1_Flex_Ext	L5_S1_Lat_Bending	L5_S1_axial_rotation	L4_L5_Flex_Ext	L4_L5_Lat_Bending	L4_L5_axial_rotation	L3_L4_Flex_Ext	L3_L4_Lat_Bending	L3_L4_axial_rotation	L2_L3_Flex_Ext	L2_L3_Lat_Bending	L2_L3_axial_rotation	L1_L2_Flex_Ext	L1_L2_Lat_Bending	L1_L2_axial_rotation	L1_T12_Flex_Ext	L1_T12_Lat_Bending	L1_T12_axial_rotation	Abs_r3	Abs_r2	Abs_r1	Abs_t1	Abs_t2	neck_flexion	neck_bending	neck_rotation	arm_flex_r	arm_add_r	arm_rot_r	elbow_flex_r	pro_sup_r	wrist_flex_r	wrist_dev_r	arm_flex_l	arm_add_l	arm_rot_l	elbow_flex_l	pro_sup_l	wrist_flex_l	wrist_dev_l
0.850000	-5.685600	-3.417458	73.476322	0.292625	0.877380	0.646400	7.888890	-4.349824	6.891346	7.581837	0.132328	35.693455	9.288846	0.000000	3.455576	4.906533	0.880028	0.937980	0.016371	31.151994	-16.694614	0.000000	0.222576	-0.286784	1.115612	0.413346	-0.381423	1.185337	0.365671	-0.697287	1.185337	0.254382	-0.697287	0.976160	0.206684	-0.584811	0.906435	0.127180	-0.444229	0.836709	1.589840	-3.244161	6.204698	0.000000	0.000000	16.820860	4.274269	2.936980	5.361411	-10.104629	0.774944	96.972076	87.929754	-7.090907	15.943976	-10.676425	-16.221106	-15.395077	115.819312	89.108173	-3.397650	21.057764
0.866667	-5.781473	-3.408369	73.473741	0.292912	0.877161	0.646455	7.924087	-4.405514	6.974924	7.641296	0.133366	35.716125	9.130535	0.000000	3.481684	4.978178	0.898297	0.923899	0.016125	31.212990	-16.681489	0.000000	0.226314	-0.287015	1.101072	0.420287	-0.381730	1.169889	0.371811	-0.697848	1.169889	0.258654	-0.697848	0.963438	0.210155	-0.585281	0.894621	0.129316	-0.444586	0.825804	1.616537	-3.246769	6.123833	0.000000	0.000000	16.196652	3.852354	2.506307	7.260066	-10.063040	0.874758	95.290329	86.661211	-6.783725	17.577302	-10.710858	-16.742676	-14.658494	115.578537	89.156255	-3.218032	21.246085
0.883333	-5.879474	-3.458677	73.530288	0.293173	0.876906	0.646587	8.049440	-4.449035	6.972078	7.758008	0.135403	35.785186	8.986999	0.000000	3.575236	5.037172	0.963570	0.920657	0.016069	31.230329	-16.709378	0.000000	0.230291	-0.288483	1.104007	0.427674	-0.383682	1.173007	0.378345	-0.701417	1.173007	0.263200	-0.701417	0.966006	0.213848	-0.588274	0.897006	0.131588	-0.446860	0.828005	1.644947	-3.263374	6.140156	0.000000	0.000000	15.693453	3.400458	1.682421	9.020824	-9.953487	0.749987	93.922343	84.786458	-6.556586	19.222115	-10.614108	-17.246743	-13.759876	115.329042	89.188692	-2.997621	21.552023
0.900000	-5.981539	-3.555973	73.620563	0.293437	0.876628	0.646791	8.254032	-4.481349	6.943485	7.928185	0.138373	35.896137	8.823287	0.000000	3.724249	5.086953	1.006524	0.934245	0.016306	31.228649	-16.704730	0.000000	0.231706	-0.290951	1.128838	0.430301	-0.386965	1.199390	0.380669	-0.707419	1.199390	0.264816	-0.707419	0.987733	0.215162	-0.593308	0.917181	0.132397	-0.450684	0.846629	1.655051	-3.291299	6.278259	0.000000	0.000000	15.306968	2.919573	0.498122	10.509978	-9.769119	0.513229	93.128638	82.859497	-6.651301	20.944838	-10.385542	-17.735705	-12.717448	115.085537	89.203994	-2.756650	21.991871
0.916667	-6.071056	-3.701721	73.768112	0.293626	0.876318	0.647035	8.524369	-4.494836	6.858080	8.142478	0.142113	36.038661	8.650575	0.000000	3.924982	5.115923	1.065468	0.963501	0.016816	31.216280	-16.672725	0.000000	0.229532	-0.290430	1.171996	0.426264	-0.386272	1.245246	0.377098	-0.706151	1.245246	0.262332	-0.706151	1.025497	0.213143	-0.592245	0.952247	0.131155	-0.449876	0.878997	1.639524	-3.285402	6.518292	0.000000	0.000000	15.034920	2.388930	-0.955518	11.627604	-9.550830	0.266870	93.170180	81.177506	-7.030104	22.839747	-10.035357	-18.203526	-11.535992	114.855830	89.205808	-2.519142	22.521089
0.933333	-6.117667	-3.897243	73.970783	0.293662	0.875970	0.647275	8.846484	-4.463896	6.725860	8.388570	0.146408	36.189219	8.441439	0.000000	4.170872	5.099364	1.155067	1.008392	0.017600	31.206453	-16.624272	0.000000	0.223732	-0.281019	1.240452	0.415493	-0.373755	1.317981	0.367569	-0.683269	1.317981	0.255703	-0.683269	1.085396	0.207758	-0.573053	1.007868	0.127841	-0.435298	0.930339	1.598096	-3.178940	6.899024	0.000000	0.000000	14.860691	1.760117	-2.656151	12.330400	-9.363067	0.041493	94.210120	79.827044	-7.338418	24.661526	-9.548340	-18.634267	-10.186845	114.630416	89.199104	-2.281645	23.148010
0.950000	-6.113408	-4.142931	74.229943	0.293526	0.875572	0.647463	9.211401	-4.384526	6.550215	8.659830	0.151143	36.334026	8.202562	0.000000	4.456332	5.031512	1.278091	1.063637	0.018564	31.203833	-16.562980	0.000000	0.214920	-0.262341	1.336372	0.399129	-0.348914	1.419895	0.353093	-0.637856	1.419895	0.245633	-0.637856	1.169325	0.199575	-0.534966	1.085802	0.122806	-0.406367	1.002279	1.535155	-2.967657	7.432499	0.000000	0.000000	14.772434	1.060188	-4.633494	12.669197	-9.173098	-0.234374	96.337257	78.845614	-7.006210	26.364013	-8.916926	-19.016872	-8.669326	114.425441	89.187712	-2.035505	23.878306
0.966667	-6.048155	-4.446411	74.542091	0.293223	0.875131	0.647605	9.616938	-4.240007	6.364848	8.938854	0.156012	36.435866	7.878155	0.000000	4.786508	4.898478	1.441074	1.125043	0.019636	31.209777	-16.498761	0.000000	0.205372	-0.233786	1.453628	0.381396	-0.310936	1.544479	0.337405	-0.568428	1.544479	0.234719	-0.568428	1.271924	0.190708	-0.476737	1.181072	0.117349	-0.362135	1.090221	1.466950	-2.644635	8.084641	0.000000	0.000000	14.750157	0.372922	-6.832008	12.772272	-8.997738	-0.345759	99.432843	78.246815	-6.527409	27.315487	-8.169161	-19.355329	-7.016163	114.227603	89.173853	-1.850706	24.625689
0.983333	-5.938122	-4.766129	74.891456	0.292796	0.874714	0.647599	10.003973	-4.059917	6.192752	9.189685	0.160390	36.469399	7.488817	0.000000	5.114603	4.727945	1.621535	1.187702	0.020729	31.211985	-16.436437	0.000000	0.192934	-0.199173	1.573792	0.358298	-0.264900	1.672154	0.316971	-0.484268	1.672154	0.220504	-0.484268	1.377068	0.179159	-0.406153	1.278706	0.110243	-0.308518	1.180344	1.378109	-2.253080	8.752960	0.000000	0.000000	14.672417	-0.247902	-9.181213	12.790937	-8.770871	-0.259892	103.332012	78.027308	-5.869120	27.585567	-7.412240	-19.636075	-5.386121	114.100513	89.157195	-1.729123	25.530404
1.000000	-5.779088	-5.112333	75.250007	0.292272	0.874311	0.647513	10.388745	-3.833545	6.022955	9.410224	0.164239	36.429515	7.085986	0.000000	5.452403	4.509112	1.804040	1.243258	0.021699	31.225034	-16.372651	0.000000	0.180179	-0.158036	1.697864	0.334611	-0.210187	1.803980	0.296016	-0.384248	1.803980	0.205927	-0.384248	1.485631	0.167314	-0.322266	1.379514	0.102954	-0.244797	1.273398	1.287002	-1.787729	9.443010	0.000000	0.000000	14.529343	-0.761306	-11.590392	12.825709	-8.466048	-0.069567	107.830812	78.172816	-4.924486	27.261389	-6.634839	-19.839709	-3.823360	114.012774	89.138763	-1.588278	26.612817
1.016667	-5.588646	-5.449510	75.625376	0.291710	0.873985	0.647341	10.732380	-3.585514	5.868342	9.589243	0.167364	36.306288	6.654857	0.000000	5.770456	4.266177	2.002846	1.297247	0.022641	31.237376	-16.315630	0.000000	0.165436	-0.114664	1.810926	0.307231	-0.152503	1.924108	0.271794	-0.278794	1.924108	0.189076	-0.278794	1.584560	0.153624	-0.233823	1.471377	0.094530	-0.177615	1.358194	1.181690	-1.297104	10.071824	0.000000	0.000000	14.238375	-1.126418	-13.986634	12.937941	-8.061999	0.299835	112.577585	78.669827	-4.048271	26.145713	-5.894099	-20.019263	-2.356822	113.939980	89.120565	-1.547580	27.701001
1.033333	-5.371992	-5.776517	75.971238	0.291160	0.873719	0.647070	11.042252	-3.319164	5.688351	9.730696	0.169833	36.153452	6.306300	0.000000	6.060537	4.000213	2.192854	1.334657	0.023294	31.258065	-16.262243	0.000000	0.151574	-0.068297	1.888800	0.281488	-0.090835	2.006850	0.249020	-0.166057	2.006850	0.173234	-0.166057	1.652700	0.140751	-0.139271	1.534650	0.086609	-0.105792	1.416600	1.082676	-0.772589	10.504938	0.000000	0.000000	13.791879	-1.294258	-16.010076	13.270086	-7.563150	1.007927	117.181559	79.492250	-3.368223	24.099763	-5.370799	-20.088546	-1.241374	113.976945	89.104496	-1.572710	28.867432
1.050000	-5.132233	-6.072553	76.319383	0.290620	0.873558	0.646710	11.285354	-3.040992	5.535449	9.814134	0.171289	35.964928	5.949672	0.000000	6.307768	3.719844	2.430176	1.363140	0.023791	31.288364	-16.224451	0.000000	0.137515	-0.020489	1.927546	0.255378	-0.027250	2.048017	0.225923	-0.049817	2.048017	0.157165	-0.049817	1.686603	0.127696	-0.041781	1.566131	0.078576	-0.031737	1.445659	0.982252	-0.231774	10.720431	0.000000	0.000000	13.158828	-1.273969	-17.638918	13.827516	-6.994943	1.984574	121.496200	80.619239	-2.887491	21.575511	-5.054975	-20.084765	-0.414427	114.049908	89.093314	-1.699008	29.831169
1.066667	-4.891765	-6.319987	76.665005	0.290137	0.873507	0.646294	11.448334	-2.775430	5.416584	9.832332	0.171607	35.783383	5.598375	0.000000	6.500123	3.449924	2.705219	1.379201	0.024072	31.320202	-16.194318	0.000000	0.122578	0.025131	1.928497	0.227640	0.033425	2.049028	0.201384	0.061104	2.049028	0.140095	0.061104	1.687435	0.113826	0.051248	1.566903	0.070041	0.038928	1.446372	0.875565	0.284290	10.725719	0.000000	0.000000	12.353368	-1.094163	-18.822917	14.628363	-6.385118	3.206890	125.359017	82.018529	-2.655679	18.710014	-4.936653	-20.048371	0.154970	114.150199	89.089787	-1.889824	30.500644
1.083333	-4.651088	-6.516514	77.029224	0.289732	0.873584	0.645824	11.524363	-2.521495	5.343212	9.783186	0.170749	35.602593	5.209711	0.000000	6.638594	3.190566	3.039588	1.389412	0.024250	31.351164	-16.162646	0.000000	0.108128	0.067406	1.897219	0.200805	0.089650	2.015795	0.177644	0.163891	2.015795	0.123580	0.163891	1.660067	0.100408	0.137454	1.541490	0.061784	0.104412	1.422914	0.772348	0.762510	10.551763	0.000000	0.000000	11.393945	-0.762081	-19.612308	15.639377	-5.759408	4.549113	128.677300	83.671115	-2.511959	15.605249	-4.978691	-20.007930	0.552643	114.253089	89.095699	-2.160751	30.816154
1.100000	-4.432714	-6.669471	77.416551	0.289424	0.873769	0.645297	11.524435	-2.296334	5.373817	9.664737	0.168681	35.433728	4.709176	0.000000	6.734202	2.961282	3.434683	1.393472	0.024321	31.365861	-16.137038	0.000000	0.096625	0.102755	1.846656	0.179442	0.136664	1.962072	0.158745	0.249837	1.962072	0.110432	0.249837	1.615824	0.089726	0.209537	1.500408	0.055211	0.159167	1.384992	0.690181	1.162380	10.270548	0.000000	0.000000	10.353395	-0.347503	-20.180769	16.806163	-5.150473	5.878905	131.434414	85.388680	-2.331097	12.385481	-5.125281	-19.992960	0.878663	114.319165	89.112262	-2.537233	30.605029
1.116667	-4.237365	-6.776772	77.828084	0.289225	0.874055	0.644717	11.444656	-2.098014	5.556566	9.471623	0.165311	35.273128	4.039049	0.000000	6.784432	2.763229	3.878741	1.393380	0.024319	31.360485	-16.114592	0.000000	0.087992	0.130603	1.786530	0.163411	0.173702	1.898188	0.144563	0.317549	1.898188	0.100566	0.317549	1.563214	0.081710	0.266326	1.451556	0.050279	0.202304	1.339897	0.628521	1.477410	9.936143	0.000000	0.000000	9.266474	0.104161	-20.627664	18.095696	-4.573911	7.067261	133.616342	87.066622	-1.950422	9.105896	-5.317335	-20.052714	1.237779	114.346950	89.138618	-3.116198	29.957624
1.133333	-4.071150	-6.851909	78.251360	0.289163	0.874416	0.644093	11.304481	-1.925685	5.895189	9.208348	0.160716	35.117659	3.209035	0.000000	6.798529	2.597755	4.451920	1.379459	0.024076	31.284936	-16.232710	0.000000	0.083248	0.149807	1.724372	0.154599	0.199243	1.832146	0.136767	0.364241	1.832146	0.095144	0.364241	1.508826	0.077304	0.305487	1.401053	0.047568	0.232051	1.293279	0.594629	1.694648	9.590442	0.000000	0.000000	8.203841	0.568090	-21.049865	19.498726	-4.035178	8.038277	135.222671	88.553723	-1.347959	5.846910	-5.525153	-20.169457	1.593986	114.353424	89.172344	-3.691534	29.085890
